STARTFONT 2.1
COMMENT Exported by Fony v1.4.7
FONT 10X16TG
SIZE 16 96 96
FONTBOUNDINGBOX 10 15 0 -11
STARTPROPERTIES 6
COPYRIGHT "Tangar @ http://tangar.info for TomeNET @ http://tomenet.eu"
RESOLUTION_X 96
RESOLUTION_Y 96
FONT_ASCENT 5
FONT_DESCENT 11
DEFAULT_CHAR 31
ENDPROPERTIES
CHARS 256
STARTCHAR 000
ENCODING 0
SWIDTH 720 0
DWIDTH 10 0
BBX 10 15 0 -10
BITMAP
8000
0000
4040
0000
0000
1100
0000
0000
0400
0000
0800
1100
0000
2000
4040
ENDCHAR
STARTCHAR 001
ENCODING 1
SWIDTH 720 0
DWIDTH 10 0
BBX 7 1 1 -10
BITMAP
92
ENDCHAR
STARTCHAR 002
ENCODING 2
SWIDTH 720 0
DWIDTH 10 0
BBX 10 16 0 -11
BITMAP
FFC0
FFC0
FFC0
FFC0
FFC0
FFC0
FFC0
FFC0
FFC0
FFC0
FFC0
FFC0
FFC0
FFC0
FFC0
FFC0
ENDCHAR
STARTCHAR 003
ENCODING 3
SWIDTH 720 0
DWIDTH 10 0
BBX 8 1 1 -9
BITMAP
DB
ENDCHAR
STARTCHAR 004
ENCODING 4
SWIDTH 720 0
DWIDTH 10 0
BBX 3 3 3 -10
BITMAP
40
E0
40
ENDCHAR
STARTCHAR 005
ENCODING 5
SWIDTH 720 0
DWIDTH 10 0
BBX 10 2 0 -9
BITMAP
8A80
5140
ENDCHAR
STARTCHAR 006
ENCODING 6
SWIDTH 720 0
DWIDTH 10 0
BBX 10 3 0 -9
BITMAP
0400
AA80
4440
ENDCHAR
STARTCHAR 007
ENCODING 7
SWIDTH 720 0
DWIDTH 10 0
BBX 9 1 0 -9
BITMAP
F780
ENDCHAR
STARTCHAR 008
ENCODING 8
SWIDTH 720 0
DWIDTH 10 0
BBX 10 3 0 -5
BITMAP
4440
AA80
1100
ENDCHAR
STARTCHAR 009
ENCODING 9
SWIDTH 720 0
DWIDTH 10 0
BBX 5 3 3 -5
BITMAP
88
50
70
ENDCHAR
STARTCHAR 010
ENCODING 10
SWIDTH 720 0
DWIDTH 10 0
BBX 10 15 0 -11
BITMAP
FBC0
FBC0
0000
C7C0
EFC0
EFC0
C7C0
0000
FBC0
FBC0
0000
C7C0
EFC0
EFC0
C7C0
ENDCHAR
STARTCHAR 011
ENCODING 11
SWIDTH 720 0
DWIDTH 10 0
BBX 10 15 0 -11
BITMAP
FBC0
FBC0
0000
EFC0
EFC0
EFC0
EFC0
0000
FBC0
FBC0
0000
EFC0
EFC0
EFC0
EFC0
ENDCHAR
STARTCHAR 012
ENCODING 12
SWIDTH 720 0
DWIDTH 10 0
BBX 10 14 0 -11
BITMAP
FBC0
FAC0
0000
EFC0
AFC0
EFC0
EFC0
0000
FAC0
FBC0
0000
EFC0
AFC0
EFC0
ENDCHAR
STARTCHAR 013
ENCODING 13
SWIDTH 720 0
DWIDTH 10 0
BBX 10 16 0 -11
BITMAP
FFC0
7EC0
60C0
9F00
E0C0
71C0
7FC0
9F00
EEC0
71C0
5F40
8E00
E0C0
7EC0
66C0
8100
ENDCHAR
STARTCHAR 014
ENCODING 14
SWIDTH 720 0
DWIDTH 10 0
BBX 10 15 0 -11
BITMAP
0300
0300
2780
3580
5F80
7BC0
7FC0
ED80
CAC0
DE80
9F00
3F00
2F80
7F80
FFC0
ENDCHAR
STARTCHAR 015
ENCODING 15
SWIDTH 720 0
DWIDTH 10 0
BBX 10 14 0 -11
BITMAP
1C00
1E00
3A00
7F00
7D00
FE00
BF00
EB80
5780
3FC0
3FC0
7FC0
7FC0
7FC0
ENDCHAR
STARTCHAR 016
ENCODING 16
SWIDTH 720 0
DWIDTH 10 0
BBX 10 16 0 -11
BITMAP
FFC0
FFC0
C9C0
FFC0
E6C0
FFC0
D9C0
FFC0
E6C0
FFC0
D9C0
FFC0
E4C0
FFC0
FFC0
FFC0
ENDCHAR
STARTCHAR 017
ENCODING 17
SWIDTH 720 0
DWIDTH 10 0
BBX 10 16 0 -11
BITMAP
FFC0
FFC0
C9C0
D3C0
E6C0
CCC0
D9C0
F3C0
E6C0
CCC0
D9C0
F2C0
E4C0
C8C0
FFC0
FFC0
ENDCHAR
STARTCHAR 018
ENCODING 18
SWIDTH 720 0
DWIDTH 10 0
BBX 10 16 0 -11
BITMAP
FFC0
FFC0
C8C0
D8C0
E8C0
C8C0
D8C0
F8C0
E8C0
C8C0
D8C0
F8C0
E8C0
C8C0
FFC0
FFC0
ENDCHAR
STARTCHAR 019
ENCODING 19
SWIDTH 720 0
DWIDTH 10 0
BBX 10 16 0 -11
BITMAP
FFC0
FFC0
D2C0
FFC0
C9C0
FFC0
FFC0
C0C0
FFC0
DCC0
FFC0
CCC0
FFC0
CCC0
FFC0
FFC0
ENDCHAR
STARTCHAR 020
ENCODING 20
SWIDTH 720 0
DWIDTH 10 0
BBX 10 16 0 -11
BITMAP
FFC0
FFC0
D2C0
E4C0
C9C0
D2C0
FFC0
C0C0
CCC0
DCC0
CEC0
CCC0
DEC0
CCC0
FFC0
FFC0
ENDCHAR
STARTCHAR 021
ENCODING 21
SWIDTH 720 0
DWIDTH 10 0
BBX 10 16 0 -11
BITMAP
FFC0
FFC0
D8C0
E8C0
C8C0
D8C0
FFC0
C0C0
CCC0
DCC0
CEC0
CCC0
DEC0
CCC0
FFC0
FFC0
ENDCHAR
STARTCHAR 022
ENCODING 22
SWIDTH 720 0
DWIDTH 10 0
BBX 10 15 0 -10
BITMAP
8000
0000
4040
0000
0000
1100
0000
0000
0400
0000
0800
1100
0000
2000
4040
ENDCHAR
STARTCHAR 023
ENCODING 23
SWIDTH 720 0
DWIDTH 10 0
BBX 10 15 0 -10
BITMAP
8000
0000
4040
0000
0000
1100
0000
0000
0400
0000
0800
1100
0000
2000
4040
ENDCHAR
STARTCHAR 024
ENCODING 24
SWIDTH 720 0
DWIDTH 10 0
BBX 10 15 0 -10
BITMAP
8000
0000
4040
0000
0000
1100
0000
0000
0400
0000
0800
1100
0000
2000
4040
ENDCHAR
STARTCHAR 025
ENCODING 25
SWIDTH 720 0
DWIDTH 10 0
BBX 10 15 0 -10
BITMAP
8000
0000
4040
0000
0000
1100
0000
0000
0400
0000
0800
1100
0000
2000
4040
ENDCHAR
STARTCHAR 026
ENCODING 26
SWIDTH 720 0
DWIDTH 10 0
BBX 10 15 0 -10
BITMAP
8000
0000
4040
0000
0000
1100
0000
0000
0400
0000
0800
1100
0000
2000
4040
ENDCHAR
STARTCHAR 027
ENCODING 27
SWIDTH 720 0
DWIDTH 10 0
BBX 10 15 0 -10
BITMAP
8000
0000
4040
0000
0000
1100
0000
0000
0400
0000
0800
1100
0000
2000
4040
ENDCHAR
STARTCHAR 028
ENCODING 28
SWIDTH 720 0
DWIDTH 10 0
BBX 10 15 0 -10
BITMAP
8000
0000
4040
0000
0000
1100
0000
0000
0400
0000
0800
1100
0000
2000
4040
ENDCHAR
STARTCHAR 029
ENCODING 29
SWIDTH 720 0
DWIDTH 10 0
BBX 10 15 0 -10
BITMAP
8000
0000
4040
0000
0000
1100
0000
0000
0400
0000
0800
1100
0000
2000
4040
ENDCHAR
STARTCHAR 030
ENCODING 30
SWIDTH 720 0
DWIDTH 10 0
BBX 10 15 0 -10
BITMAP
8000
0000
4040
0000
0000
1100
0000
0000
0400
0000
0800
1100
0000
2000
4040
ENDCHAR
STARTCHAR 031
ENCODING 31
SWIDTH 720 0
DWIDTH 10 0
BBX 10 15 0 -10
BITMAP
8000
0000
4040
0000
0000
1100
0000
0000
0400
0000
0800
1100
0000
2000
4040
ENDCHAR
STARTCHAR 032
ENCODING 32
SWIDTH 720 0
DWIDTH 10 0
BBX 0 0 0 0
BITMAP
ENDCHAR
STARTCHAR 033
ENCODING 33
SWIDTH 720 0
DWIDTH 10 0
BBX 3 12 4 -9
BITMAP
40
E0
E0
A0
E0
E0
E0
E0
C0
00
40
C0
ENDCHAR
STARTCHAR 034
ENCODING 34
SWIDTH 720 0
DWIDTH 10 0
BBX 5 3 3 -2
BITMAP
D8
D8
88
ENDCHAR
STARTCHAR 035
ENCODING 35
SWIDTH 720 0
DWIDTH 10 0
BBX 9 9 1 -8
BITMAP
3600
3600
FF80
FF80
3600
FF80
FF80
3600
3600
ENDCHAR
STARTCHAR 036
ENCODING 36
SWIDTH 720 0
DWIDTH 10 0
BBX 7 14 2 -11
BITMAP
08
18
7E
DA
DA
78
3C
16
12
92
F6
7C
30
20
ENDCHAR
STARTCHAR 037
ENCODING 37
SWIDTH 720 0
DWIDTH 10 0
BBX 9 9 1 -8
BITMAP
6200
9600
9400
6C00
0800
1B80
1280
3380
2000
ENDCHAR
STARTCHAR 038
ENCODING 38
SWIDTH 720 0
DWIDTH 10 0
BBX 8 9 2 -8
BITMAP
3C
44
4C
38
70
C9
8E
C4
7F
ENDCHAR
STARTCHAR 039
ENCODING 39
SWIDTH 720 0
DWIDTH 10 0
BBX 3 5 4 -4
BITMAP
E0
E0
40
40
80
ENDCHAR
STARTCHAR 040
ENCODING 40
SWIDTH 720 0
DWIDTH 10 0
BBX 4 13 3 -10
BITMAP
10
20
20
40
C0
C0
C0
C0
C0
40
20
20
10
ENDCHAR
STARTCHAR 041
ENCODING 41
SWIDTH 720 0
DWIDTH 10 0
BBX 4 13 3 -10
BITMAP
80
40
40
20
30
30
30
30
30
20
40
40
80
ENDCHAR
STARTCHAR 042
ENCODING 42
SWIDTH 720 0
DWIDTH 10 0
BBX 7 7 2 -7
BITMAP
92
54
38
FE
38
54
92
ENDCHAR
STARTCHAR 043
ENCODING 43
SWIDTH 720 0
DWIDTH 10 0
BBX 7 7 1 -7
BITMAP
38
38
FE
FE
FE
38
38
ENDCHAR
STARTCHAR 044
ENCODING 44
SWIDTH 720 0
DWIDTH 10 0
BBX 4 5 3 -11
BITMAP
70
70
30
60
C0
ENDCHAR
STARTCHAR 045
ENCODING 45
SWIDTH 720 0
DWIDTH 10 0
BBX 8 2 1 -5
BITMAP
FF
FF
ENDCHAR
STARTCHAR 046
ENCODING 46
SWIDTH 720 0
DWIDTH 10 0
BBX 3 3 4 -5
BITMAP
E0
E0
E0
ENDCHAR
STARTCHAR 047
ENCODING 47
SWIDTH 720 0
DWIDTH 10 0
BBX 6 10 2 -8
BITMAP
04
0C
0C
18
18
30
30
60
40
C0
ENDCHAR
STARTCHAR 048
ENCODING 48
SWIDTH 720 0
DWIDTH 10 0
BBX 7 10 1 -8
BITMAP
0C
3E
76
66
C6
C6
CC
CC
D8
70
ENDCHAR
STARTCHAR 049
ENCODING 49
SWIDTH 720 0
DWIDTH 10 0
BBX 5 10 2 -8
BITMAP
10
30
70
F0
30
30
30
30
30
78
ENDCHAR
STARTCHAR 050
ENCODING 50
SWIDTH 720 0
DWIDTH 10 0
BBX 7 10 1 -8
BITMAP
3C
76
66
46
04
0C
18
30
66
FE
ENDCHAR
STARTCHAR 051
ENCODING 51
SWIDTH 720 0
DWIDTH 10 0
BBX 6 10 1 -8
BITMAP
18
7C
4C
04
0C
3C
04
04
CC
78
ENDCHAR
STARTCHAR 052
ENCODING 52
SWIDTH 720 0
DWIDTH 10 0
BBX 5 10 2 -8
BITMAP
40
48
C8
88
F8
F8
10
10
10
10
ENDCHAR
STARTCHAR 053
ENCODING 53
SWIDTH 720 0
DWIDTH 10 0
BBX 7 9 2 -8
BITMAP
3E
20
60
78
0C
04
84
CC
78
ENDCHAR
STARTCHAR 054
ENCODING 54
SWIDTH 720 0
DWIDTH 10 0
BBX 6 9 2 -8
BITMAP
3C
64
C0
D8
FC
C4
C4
CC
78
ENDCHAR
STARTCHAR 055
ENCODING 55
SWIDTH 720 0
DWIDTH 10 0
BBX 7 9 2 -8
BITMAP
FE
84
0C
08
18
10
30
30
60
ENDCHAR
STARTCHAR 056
ENCODING 56
SWIDTH 720 0
DWIDTH 10 0
BBX 6 10 2 -8
BITMAP
18
3C
64
64
3C
78
4C
CC
CC
78
ENDCHAR
STARTCHAR 057
ENCODING 57
SWIDTH 720 0
DWIDTH 10 0
BBX 7 9 2 -8
BITMAP
3C
66
66
66
3C
0C
0C
98
F0
ENDCHAR
STARTCHAR 058
ENCODING 58
SWIDTH 720 0
DWIDTH 10 0
BBX 3 7 3 -9
BITMAP
40
E0
40
00
40
E0
40
ENDCHAR
STARTCHAR 059
ENCODING 59
SWIDTH 720 0
DWIDTH 10 0
BBX 3 9 3 -11
BITMAP
40
E0
40
00
40
E0
60
40
80
ENDCHAR
STARTCHAR 060
ENCODING 60
SWIDTH 720 0
DWIDTH 10 0
BBX 9 13 0 -10
BITMAP
0080
0280
0280
0A80
2A80
AA80
AA80
AA80
2A80
0A80
0280
0280
0080
ENDCHAR
STARTCHAR 061
ENCODING 61
SWIDTH 720 0
DWIDTH 10 0
BBX 7 4 2 -6
BITMAP
FE
00
00
FE
ENDCHAR
STARTCHAR 062
ENCODING 62
SWIDTH 720 0
DWIDTH 10 0
BBX 9 13 1 -10
BITMAP
8000
A000
A800
AA00
AA80
AA80
AA80
AA80
AA80
AA00
A800
A000
8000
ENDCHAR
STARTCHAR 063
ENCODING 63
SWIDTH 720 0
DWIDTH 10 0
BBX 7 12 2 -10
BITMAP
3C
66
C2
02
06
0C
18
30
00
30
30
30
ENDCHAR
STARTCHAR 064
ENCODING 64
SWIDTH 720 0
DWIDTH 10 0
BBX 7 15 2 -11
BITMAP
38
38
38
10
38
7C
FE
BA
BA
38
2C
6C
64
64
C6
ENDCHAR
STARTCHAR 065
ENCODING 65
SWIDTH 720 0
DWIDTH 10 0
BBX 9 12 1 -9
BITMAP
3800
7C00
5E00
1E00
1300
3300
2300
7F00
7F80
6180
E180
E380
ENDCHAR
STARTCHAR 066
ENCODING 66
SWIDTH 720 0
DWIDTH 10 0
BBX 8 10 1 -8
BITMAP
F8
7E
62
62
7E
7F
61
61
7F
7E
ENDCHAR
STARTCHAR 067
ENCODING 67
SWIDTH 720 0
DWIDTH 10 0
BBX 9 10 1 -8
BITMAP
3F00
7F00
7180
E100
C000
C000
C000
E000
7300
3E00
ENDCHAR
STARTCHAR 068
ENCODING 68
SWIDTH 720 0
DWIDTH 10 0
BBX 9 11 0 -9
BITMAP
FE00
7F00
4180
4180
4180
4180
4180
4180
4380
7F00
FE00
ENDCHAR
STARTCHAR 069
ENCODING 69
SWIDTH 720 0
DWIDTH 10 0
BBX 7 12 2 -9
BITMAP
02
FE
FE
C0
C0
F0
F0
C0
C0
C0
FE
FE
ENDCHAR
STARTCHAR 070
ENCODING 70
SWIDTH 720 0
DWIDTH 10 0
BBX 8 11 1 -9
BITMAP
FF
FF
C0
C0
F0
F8
C0
C0
C0
C0
C0
ENDCHAR
STARTCHAR 071
ENCODING 71
SWIDTH 720 0
DWIDTH 10 0
BBX 9 12 0 -9
BITMAP
1E00
3F00
7180
6180
6000
C000
C300
C780
6080
7180
7F80
1E00
ENDCHAR
STARTCHAR 072
ENCODING 72
SWIDTH 720 0
DWIDTH 10 0
BBX 9 11 1 -9
BITMAP
6300
6300
6300
6300
7F00
7F00
6300
6300
6300
6300
E380
ENDCHAR
STARTCHAR 073
ENCODING 73
SWIDTH 720 0
DWIDTH 10 0
BBX 5 10 3 -8
BITMAP
F8
20
20
20
20
20
20
20
20
F8
ENDCHAR
STARTCHAR 074
ENCODING 74
SWIDTH 720 0
DWIDTH 10 0
BBX 9 12 1 -9
BITMAP
0780
0300
0300
0300
0300
0300
0300
E300
4300
6300
7F00
1E00
ENDCHAR
STARTCHAR 075
ENCODING 75
SWIDTH 720 0
DWIDTH 10 0
BBX 9 12 0 -9
BITMAP
0300
E780
6680
4C00
4800
5800
7800
7800
4C80
4680
6780
E300
ENDCHAR
STARTCHAR 076
ENCODING 76
SWIDTH 720 0
DWIDTH 10 0
BBX 7 10 2 -8
BITMAP
C0
C0
C0
C0
C0
C0
C0
C0
C2
FE
ENDCHAR
STARTCHAR 077
ENCODING 77
SWIDTH 720 0
DWIDTH 10 0
BBX 9 11 0 -9
BITMAP
6180
6180
6380
7280
5280
5E80
CC80
CC80
C480
E180
E180
ENDCHAR
STARTCHAR 078
ENCODING 78
SWIDTH 720 0
DWIDTH 10 0
BBX 8 11 1 -9
BITMAP
01
C3
E3
A3
B3
9B
9A
8E
86
86
80
ENDCHAR
STARTCHAR 079
ENCODING 79
SWIDTH 720 0
DWIDTH 10 0
BBX 9 9 1 -8
BITMAP
3E00
7F00
E180
E880
C080
C080
4180
6300
3E00
ENDCHAR
STARTCHAR 080
ENCODING 80
SWIDTH 720 0
DWIDTH 10 0
BBX 8 11 1 -9
BITMAP
FE
43
41
41
7F
7E
40
40
40
40
C0
ENDCHAR
STARTCHAR 081
ENCODING 81
SWIDTH 720 0
DWIDTH 10 0
BBX 9 12 1 -9
BITMAP
3C00
FE00
FF00
C300
8180
8180
8080
8C80
8D80
C700
7F00
0180
ENDCHAR
STARTCHAR 082
ENCODING 82
SWIDTH 720 0
DWIDTH 10 0
BBX 9 11 0 -8
BITMAP
FC00
7E00
4600
4300
4300
7E00
7C00
4C00
4600
6780
6380
ENDCHAR
STARTCHAR 083
ENCODING 83
SWIDTH 720 0
DWIDTH 10 0
BBX 9 10 0 -8
BITMAP
1F00
3380
6080
6000
3C00
1F00
0180
C180
6180
3F00
ENDCHAR
STARTCHAR 084
ENCODING 84
SWIDTH 720 0
DWIDTH 10 0
BBX 9 11 0 -8
BITMAP
8080
FF80
FF80
1C00
1C00
1C00
1C00
1C00
1C00
1C00
1C00
ENDCHAR
STARTCHAR 085
ENCODING 85
SWIDTH 720 0
DWIDTH 10 0
BBX 8 10 1 -8
BITMAP
C3
C3
C3
C3
C3
C3
C3
C3
E7
7E
ENDCHAR
STARTCHAR 086
ENCODING 86
SWIDTH 720 0
DWIDTH 10 0
BBX 9 10 0 -8
BITMAP
F380
4100
4100
6100
6300
2200
2600
3600
1400
1C00
ENDCHAR
STARTCHAR 087
ENCODING 87
SWIDTH 720 0
DWIDTH 10 0
BBX 9 10 0 -8
BITMAP
C180
4100
4100
4100
4100
4900
5D00
7700
6300
4300
ENDCHAR
STARTCHAR 088
ENCODING 88
SWIDTH 720 0
DWIDTH 10 0
BBX 9 11 1 -8
BITMAP
C180
4300
6600
3400
1C00
1C00
3C00
3600
6200
4300
C180
ENDCHAR
STARTCHAR 089
ENCODING 89
SWIDTH 720 0
DWIDTH 10 0
BBX 9 12 1 -9
BITMAP
C180
4100
6300
2200
3600
1C00
0C00
0800
0800
0800
0800
1C00
ENDCHAR
STARTCHAR 090
ENCODING 90
SWIDTH 720 0
DWIDTH 10 0
BBX 9 10 1 -8
BITMAP
4000
FF80
0300
0600
0C00
1800
1800
3000
6080
FF80
ENDCHAR
STARTCHAR 091
ENCODING 91
SWIDTH 720 0
DWIDTH 10 0
BBX 4 13 4 -10
BITMAP
F0
F0
80
80
80
80
80
80
80
80
80
F0
F0
ENDCHAR
STARTCHAR 092
ENCODING 92
SWIDTH 720 0
DWIDTH 10 0
BBX 6 10 2 -8
BITMAP
C0
40
60
20
30
10
18
08
0C
04
ENDCHAR
STARTCHAR 093
ENCODING 93
SWIDTH 720 0
DWIDTH 10 0
BBX 5 13 3 -11
BITMAP
F8
F8
18
18
98
18
18
18
18
18
18
F8
F8
ENDCHAR
STARTCHAR 094
ENCODING 94
SWIDTH 720 0
DWIDTH 10 0
BBX 8 6 1 -4
BITMAP
10
38
3C
7C
E6
C7
ENDCHAR
STARTCHAR 095
ENCODING 95
SWIDTH 720 0
DWIDTH 10 0
BBX 10 2 0 -10
BITMAP
FFC0
FFC0
ENDCHAR
STARTCHAR 096
ENCODING 96
SWIDTH 720 0
DWIDTH 10 0
BBX 5 6 4 -4
BITMAP
E0
E0
E0
20
30
18
ENDCHAR
STARTCHAR 097
ENCODING 97
SWIDTH 720 0
DWIDTH 10 0
BBX 7 7 2 -8
BITMAP
04
7C
CC
CC
CC
CC
76
ENDCHAR
STARTCHAR 098
ENCODING 98
SWIDTH 720 0
DWIDTH 10 0
BBX 7 12 2 -9
BITMAP
20
60
E0
60
60
7C
7E
62
62
66
FE
80
ENDCHAR
STARTCHAR 099
ENCODING 99
SWIDTH 720 0
DWIDTH 10 0
BBX 6 7 2 -8
BITMAP
38
7C
C4
80
80
C4
7C
ENDCHAR
STARTCHAR 100
ENCODING 100
SWIDTH 720 0
DWIDTH 10 0
BBX 7 11 2 -8
BITMAP
04
04
04
04
04
7C
CC
84
84
8C
FE
ENDCHAR
STARTCHAR 101
ENCODING 101
SWIDTH 720 0
DWIDTH 10 0
BBX 7 7 2 -8
BITMAP
3C
64
44
FC
C0
62
7E
ENDCHAR
STARTCHAR 102
ENCODING 102
SWIDTH 720 0
DWIDTH 10 0
BBX 7 10 2 -8
BITMAP
1C
14
10
10
12
FE
90
10
10
10
ENDCHAR
STARTCHAR 103
ENCODING 103
SWIDTH 720 0
DWIDTH 10 0
BBX 7 11 2 -11
BITMAP
18
3E
44
4C
7C
38
3C
68
C8
90
60
ENDCHAR
STARTCHAR 104
ENCODING 104
SWIDTH 720 0
DWIDTH 10 0
BBX 8 11 1 -9
BITMAP
40
C0
40
40
40
40
78
68
48
4D
C6
ENDCHAR
STARTCHAR 105
ENCODING 105
SWIDTH 720 0
DWIDTH 10 0
BBX 3 9 4 -8
BITMAP
40
00
00
C0
40
40
40
40
E0
ENDCHAR
STARTCHAR 106
ENCODING 106
SWIDTH 720 0
DWIDTH 10 0
BBX 7 12 2 -11
BITMAP
06
00
00
04
04
04
04
04
84
84
48
30
ENDCHAR
STARTCHAR 107
ENCODING 107
SWIDTH 720 0
DWIDTH 10 0
BBX 8 10 1 -10
BITMAP
40
40
46
4A
70
70
4C
47
43
80
ENDCHAR
STARTCHAR 108
ENCODING 108
SWIDTH 720 0
DWIDTH 10 0
BBX 6 11 3 -8
BITMAP
18
3C
24
6C
48
50
60
C0
C8
58
70
ENDCHAR
STARTCHAR 109
ENCODING 109
SWIDTH 720 0
DWIDTH 10 0
BBX 9 7 1 -8
BITMAP
3300
7F80
C980
C980
C980
8100
8300
ENDCHAR
STARTCHAR 110
ENCODING 110
SWIDTH 720 0
DWIDTH 10 0
BBX 8 7 1 -8
BITMAP
40
FC
4C
4C
4C
4D
C7
ENDCHAR
STARTCHAR 111
ENCODING 111
SWIDTH 720 0
DWIDTH 10 0
BBX 7 6 1 -8
BITMAP
7C
C6
82
8A
C6
7C
ENDCHAR
STARTCHAR 112
ENCODING 112
SWIDTH 720 0
DWIDTH 10 0
BBX 5 8 3 -10
BITMAP
F8
88
88
F8
80
80
80
80
ENDCHAR
STARTCHAR 113
ENCODING 113
SWIDTH 720 0
DWIDTH 10 0
BBX 8 9 1 -11
BITMAP
78
CC
C4
C4
7C
34
04
05
06
ENDCHAR
STARTCHAR 114
ENCODING 114
SWIDTH 720 0
DWIDTH 10 0
BBX 7 8 2 -9
BITMAP
40
70
7E
40
40
C0
C0
80
ENDCHAR
STARTCHAR 115
ENCODING 115
SWIDTH 720 0
DWIDTH 10 0
BBX 5 8 3 -9
BITMAP
70
C8
C0
70
18
08
98
70
ENDCHAR
STARTCHAR 116
ENCODING 116
SWIDTH 720 0
DWIDTH 10 0
BBX 6 9 2 -8
BITMAP
30
30
F0
3C
30
30
30
30
3C
ENDCHAR
STARTCHAR 117
ENCODING 117
SWIDTH 720 0
DWIDTH 10 0
BBX 6 6 2 -8
BITMAP
84
84
84
84
CC
78
ENDCHAR
STARTCHAR 118
ENCODING 118
SWIDTH 720 0
DWIDTH 10 0
BBX 9 7 0 -8
BITMAP
E380
4100
2100
2200
1200
0C00
0C00
ENDCHAR
STARTCHAR 119
ENCODING 119
SWIDTH 720 0
DWIDTH 10 0
BBX 9 6 0 -8
BITMAP
C080
4080
4900
3D00
3700
3200
ENDCHAR
STARTCHAR 120
ENCODING 120
SWIDTH 720 0
DWIDTH 10 0
BBX 7 7 2 -8
BITMAP
86
4C
38
30
30
68
C4
ENDCHAR
STARTCHAR 121
ENCODING 121
SWIDTH 720 0
DWIDTH 10 0
BBX 7 9 2 -11
BITMAP
C6
46
64
2C
38
18
10
A0
C0
ENDCHAR
STARTCHAR 122
ENCODING 122
SWIDTH 720 0
DWIDTH 10 0
BBX 7 7 1 -8
BITMAP
FE
06
0C
18
30
60
FE
ENDCHAR
STARTCHAR 123
ENCODING 123
SWIDTH 720 0
DWIDTH 10 0
BBX 5 12 2 -10
BITMAP
18
20
20
20
20
60
E0
60
20
20
20
18
ENDCHAR
STARTCHAR 124
ENCODING 124
SWIDTH 720 0
DWIDTH 10 0
BBX 1 12 5 -10
BITMAP
80
80
80
80
80
80
80
80
80
80
80
80
ENDCHAR
STARTCHAR 125
ENCODING 125
SWIDTH 720 0
DWIDTH 10 0
BBX 6 13 2 -10
BITMAP
E0
30
10
10
10
18
0C
18
10
10
10
30
E0
ENDCHAR
STARTCHAR 126
ENCODING 126
SWIDTH 720 0
DWIDTH 10 0
BBX 8 6 1 -8
BITMAP
73
DE
00
73
DE
8C
ENDCHAR
STARTCHAR 127
ENCODING 127
SWIDTH 720 0
DWIDTH 10 0
BBX 10 16 0 -11
BITMAP
FFC0
FFC0
FFC0
FFC0
FFC0
FFC0
FFC0
FFC0
FFC0
FFC0
FFC0
FFC0
FFC0
FFC0
FFC0
FFC0
ENDCHAR
STARTCHAR 128
ENCODING 128
SWIDTH 720 0
DWIDTH 10 0
BBX 10 15 0 -11
BITMAP
FFC0
C0C0
9F40
8000
A640
2940
A940
2900
2940
2900
2940
2940
A940
2940
2040
ENDCHAR
STARTCHAR 129
ENCODING 129
SWIDTH 720 0
DWIDTH 10 0
BBX 3 14 1 -11
BITMAP
C0
C0
40
C0
C0
C0
C0
E0
C0
C0
C0
C0
40
C0
ENDCHAR
STARTCHAR 130
ENCODING 130
SWIDTH 720 0
DWIDTH 10 0
BBX 9 11 1 -9
BITMAP
E380
C180
C180
C180
C180
C180
C180
C180
6380
7F00
1E00
ENDCHAR
STARTCHAR 131
ENCODING 131
SWIDTH 720 0
DWIDTH 10 0
BBX 9 14 1 -11
BITMAP
1C00
1C00
1400
0800
1C00
3E00
7F00
DD80
1C00
3E00
0800
0800
0800
0800
ENDCHAR
STARTCHAR 132
ENCODING 132
SWIDTH 720 0
DWIDTH 10 0
BBX 9 8 1 -7
BITMAP
0800
0800
2A00
2A00
AA80
2A00
2A00
0800
ENDCHAR
STARTCHAR 133
ENCODING 133
SWIDTH 720 0
DWIDTH 10 0
BBX 9 13 1 -11
BITMAP
3E00
7700
3E80
EB00
BE80
7B00
EF80
BE80
5500
7F00
0800
0800
0800
ENDCHAR
STARTCHAR 134
ENCODING 134
SWIDTH 720 0
DWIDTH 10 0
BBX 9 10 1 -11
BITMAP
0200
0800
2D00
7F00
1E00
AB00
7E80
9400
2800
0800
ENDCHAR
STARTCHAR 135
ENCODING 135
SWIDTH 720 0
DWIDTH 10 0
BBX 9 13 1 -11
BITMAP
2A00
5D00
2280
8C00
6D00
B800
2F00
1900
6C00
2800
0800
0800
0800
ENDCHAR
STARTCHAR 136
ENCODING 136
SWIDTH 720 0
DWIDTH 10 0
BBX 10 16 0 -11
BITMAP
1440
1440
A080
6B00
1040
D300
2C80
2C80
9140
6400
2280
4D00
9540
2280
2A80
5540
ENDCHAR
STARTCHAR 137
ENCODING 137
SWIDTH 720 0
DWIDTH 10 0
BBX 9 16 1 -11
BITMAP
8000
0200
8000
0400
8080
1000
A200
2400
8000
5000
8100
2600
8800
9000
C000
D500
ENDCHAR
STARTCHAR 138
ENCODING 138
SWIDTH 720 0
DWIDTH 10 0
BBX 10 4 0 -5
BITMAP
4440
EEC0
BB80
1100
ENDCHAR
STARTCHAR 139
ENCODING 139
SWIDTH 720 0
DWIDTH 10 0
BBX 10 15 0 -11
BITMAP
0100
2000
0000
1100
6A80
4040
BAC0
DD40
4440
0400
0400
3F80
4440
4040
3F80
ENDCHAR
STARTCHAR 140
ENCODING 140
SWIDTH 720 0
DWIDTH 10 0
BBX 10 10 0 -11
BITMAP
0180
0A40
3FC0
72C0
4440
B7C0
BF00
52C0
BCC0
3AC0
ENDCHAR
STARTCHAR 141
ENCODING 141
SWIDTH 720 0
DWIDTH 10 0
BBX 10 16 0 -11
BITMAP
A880
A8C0
F980
70C0
3180
70C0
7D80
FC80
FE80
FF80
FFC0
FF00
FE00
FE00
AA00
AA00
ENDCHAR
STARTCHAR 142
ENCODING 142
SWIDTH 720 0
DWIDTH 10 0
BBX 10 14 0 -11
BITMAP
0E00
3F80
7FC0
BFC0
DF40
EEC0
F5C0
FBC0
FBC0
FBC0
7BC0
3B80
0B00
0400
ENDCHAR
STARTCHAR 143
ENCODING 143
SWIDTH 720 0
DWIDTH 10 0
BBX 10 15 0 -10
BITMAP
8000
0000
4040
0000
0000
1100
0000
0000
0400
0000
0800
1100
0000
2000
4040
ENDCHAR
STARTCHAR 144
ENCODING 144
SWIDTH 720 0
DWIDTH 10 0
BBX 10 15 0 -10
BITMAP
8000
0000
4040
0000
0000
1100
0000
0000
0400
0000
0800
1100
0000
2000
4040
ENDCHAR
STARTCHAR 145
ENCODING 145
SWIDTH 720 0
DWIDTH 10 0
BBX 10 16 0 -11
BITMAP
FE80
DDC0
3F40
DFC0
F5C0
FF80
7FC0
F7C0
FFC0
FFC0
76C0
FFC0
FFC0
AFC0
FF00
BFC0
ENDCHAR
STARTCHAR 146
ENCODING 146
SWIDTH 720 0
DWIDTH 10 0
BBX 10 16 0 -11
BITMAP
FFC0
7EC0
66C0
8100
FFC0
7EC0
66C0
8100
FFC0
7EC0
66C0
8100
FFC0
7EC0
66C0
8100
ENDCHAR
STARTCHAR 147
ENCODING 147
SWIDTH 720 0
DWIDTH 10 0
BBX 7 10 2 -9
BITMAP
10
38
6C
D6
BA
EE
BA
D6
6C
38
ENDCHAR
STARTCHAR 148
ENCODING 148
SWIDTH 720 0
DWIDTH 10 0
BBX 10 15 0 -11
BITMAP
79C0
35C0
3300
0000
F7C0
F7C0
77C0
0000
FFC0
FDC0
F100
0000
73C0
7BC0
7200
ENDCHAR
STARTCHAR 149
ENCODING 149
SWIDTH 720 0
DWIDTH 10 0
BBX 10 16 0 -11
BITMAP
FFC0
7EC0
F5C0
4BC0
2AC0
DCC0
F5C0
EB80
3FC0
F6C0
AFC0
D900
96C0
5EC0
FAC0
DB80
ENDCHAR
STARTCHAR 150
ENCODING 150
SWIDTH 720 0
DWIDTH 10 0
BBX 10 15 0 -11
BITMAP
7B40
E9C0
0000
8380
EEC0
A780
4BC0
0000
F340
BAC0
0000
C680
CBC0
EFC0
45C0
ENDCHAR
STARTCHAR 151
ENCODING 151
SWIDTH 720 0
DWIDTH 10 0
BBX 10 10 0 -8
BITMAP
0040
0080
7140
FD80
DF40
8E80
0000
71C0
DB80
8E00
ENDCHAR
STARTCHAR 152
ENCODING 152
SWIDTH 720 0
DWIDTH 10 0
BBX 10 11 0 -10
BITMAP
0040
00C0
01C0
0380
0700
0E00
5C00
3800
3000
4800
8000
ENDCHAR
STARTCHAR 153
ENCODING 153
SWIDTH 720 0
DWIDTH 10 0
BBX 8 15 1 -11
BITMAP
80
E0
70
7C
7E
67
63
7E
7F
61
61
3F
5E
70
E0
ENDCHAR
STARTCHAR 154
ENCODING 154
SWIDTH 720 0
DWIDTH 10 0
BBX 9 11 0 -9
BITMAP
0080
3F80
7F80
7380
E980
F000
C000
C000
F000
7F00
7E00
ENDCHAR
STARTCHAR 155
ENCODING 155
SWIDTH 720 0
DWIDTH 10 0
BBX 10 12 0 -11
BITMAP
3F00
3F80
39C0
38C0
78C0
E8C0
78C0
38C0
38C0
39C0
3F80
3E00
ENDCHAR
STARTCHAR 156
ENCODING 156
SWIDTH 720 0
DWIDTH 10 0
BBX 10 12 0 -11
BITMAP
FF80
69C0
38C0
38C0
38C0
38C0
38C0
38C0
38C0
29C0
7FC0
FF00
ENDCHAR
STARTCHAR 157
ENCODING 157
SWIDTH 720 0
DWIDTH 10 0
BBX 10 15 0 -10
BITMAP
8000
0000
4040
0000
0000
1100
0000
0000
0400
0000
0800
1100
0000
2000
4040
ENDCHAR
STARTCHAR 158
ENCODING 158
SWIDTH 720 0
DWIDTH 10 0
BBX 7 16 2 -11
BITMAP
10
10
30
20
60
42
FC
84
08
08
18
10
10
70
60
60
ENDCHAR
STARTCHAR 159
ENCODING 159
SWIDTH 720 0
DWIDTH 10 0
BBX 10 12 0 -9
BITMAP
4480
6900
2880
3780
B6C0
5A80
2AC0
4E80
AEC0
5940
25C0
36C0
ENDCHAR
STARTCHAR 160
ENCODING 160
SWIDTH 720 0
DWIDTH 10 0
BBX 9 14 1 -11
BITMAP
1C00
1C00
9C80
0000
DD80
DD80
1C00
1C00
0000
3600
3600
0000
7300
7300
ENDCHAR
STARTCHAR 161
ENCODING 161
SWIDTH 720 0
DWIDTH 10 0
BBX 10 14 0 -10
BITMAP
8640
CF40
6640
3080
3FC0
75C0
D5C0
5140
5F40
1F00
3980
2100
31C0
41C0
ENDCHAR
STARTCHAR 162
ENCODING 162
SWIDTH 720 0
DWIDTH 10 0
BBX 10 16 0 -11
BITMAP
0700
29C0
31C0
6040
C6C0
F6C0
77C0
3F80
1F80
1F80
3F80
7FC0
61C0
30C0
3180
61C0
ENDCHAR
STARTCHAR 163
ENCODING 163
SWIDTH 720 0
DWIDTH 10 0
BBX 10 15 0 -11
BITMAP
0140
01C0
0080
00C0
0040
00C0
00C0
7DC0
FFC0
DFC0
FFC0
FF80
CF80
0E00
3800
ENDCHAR
STARTCHAR 164
ENCODING 164
SWIDTH 720 0
DWIDTH 10 0
BBX 10 15 0 -10
BITMAP
C000
F800
D400
9C00
1800
6400
FF00
89C0
C800
1C00
3C00
7E00
7E00
CF00
6000
ENDCHAR
STARTCHAR 165
ENCODING 165
SWIDTH 720 0
DWIDTH 10 0
BBX 10 15 0 -10
BITMAP
0C00
1200
0C00
0000
7E80
F3C0
E1C0
EDC0
CCC0
C0C0
9E40
BF40
FFC0
CA40
1B00
ENDCHAR
STARTCHAR 166
ENCODING 166
SWIDTH 720 0
DWIDTH 10 0
BBX 10 15 0 -11
BITMAP
00C0
05C0
0FC0
1BC0
1BC0
1780
1FC0
0D00
1F80
F800
3E00
1F00
1FC0
03C0
0080
ENDCHAR
STARTCHAR 167
ENCODING 167
SWIDTH 720 0
DWIDTH 10 0
BBX 10 11 0 -9
BITMAP
5000
7000
D000
7040
7F00
7F80
7FC0
3FC0
2DC0
2940
2940
ENDCHAR
STARTCHAR 168
ENCODING 168
SWIDTH 720 0
DWIDTH 10 0
BBX 10 14 0 -11
BITMAP
1C00
0640
0580
CD80
6F40
BF40
3EC0
1D80
1F80
0F00
0700
3300
7FC0
3EC0
ENDCHAR
STARTCHAR 169
ENCODING 169
SWIDTH 720 0
DWIDTH 10 0
BBX 10 14 0 -10
BITMAP
8040
60C0
D140
D140
EEC0
7EC0
F5C0
FFC0
9B00
EEC0
2E80
3F80
2E80
5140
ENDCHAR
STARTCHAR 170
ENCODING 170
SWIDTH 720 0
DWIDTH 10 0
BBX 9 16 1 -11
BITMAP
1800
1800
7E00
1800
3C00
2400
2400
0000
C180
7F00
5D80
EB80
FF80
DD80
1C00
1C00
ENDCHAR
STARTCHAR 171
ENCODING 171
SWIDTH 720 0
DWIDTH 10 0
BBX 10 13 0 -10
BITMAP
0200
2400
B400
7F80
33C0
2180
2C80
E180
B380
1F80
2480
24C0
6000
ENDCHAR
STARTCHAR 172
ENCODING 172
SWIDTH 720 0
DWIDTH 10 0
BBX 9 14 1 -11
BITMAP
0F00
1E80
3380
1380
1F80
1700
1700
1600
0C00
2C00
3800
2000
4000
8000
ENDCHAR
STARTCHAR 173
ENCODING 173
SWIDTH 720 0
DWIDTH 10 0
BBX 10 9 0 -10
BITMAP
0040
5040
7040
5040
7FC0
7FC0
7FC0
F9C0
B340
ENDCHAR
STARTCHAR 174
ENCODING 174
SWIDTH 720 0
DWIDTH 10 0
BBX 10 13 0 -11
BITMAP
03C0
0440
0AC0
1040
2340
1340
C040
20C0
2080
7A00
5800
3000
6000
ENDCHAR
STARTCHAR 175
ENCODING 175
SWIDTH 720 0
DWIDTH 10 0
BBX 10 13 0 -11
BITMAP
0600
0F00
0D00
0780
1B00
3C00
3C40
7A80
7900
F800
F800
EC00
3600
ENDCHAR
STARTCHAR 176
ENCODING 176
SWIDTH 720 0
DWIDTH 10 0
BBX 5 12 3 -10
BITMAP
E0
A0
E0
F0
38
38
70
B8
B8
28
28
28
ENDCHAR
STARTCHAR 177
ENCODING 177
SWIDTH 720 0
DWIDTH 10 0
BBX 10 14 0 -10
BITMAP
01C0
01C0
1DC0
1500
1500
1500
1D00
7F00
C300
8100
C300
FE00
3600
7700
ENDCHAR
STARTCHAR 178
ENCODING 178
SWIDTH 720 0
DWIDTH 10 0
BBX 8 13 2 -10
BITMAP
59
31
3B
5A
74
58
54
78
78
48
C8
88
8C
ENDCHAR
STARTCHAR 179
ENCODING 179
SWIDTH 720 0
DWIDTH 10 0
BBX 10 15 0 -10
BITMAP
2040
2040
1080
0F00
0D00
1780
68C0
E040
CF40
4040
0000
1980
30C0
0000
4000
ENDCHAR
STARTCHAR 180
ENCODING 180
SWIDTH 720 0
DWIDTH 10 0
BBX 10 13 0 -10
BITMAP
0600
0000
00C0
0DC0
7F40
7FC0
7DC0
DB80
C7C0
FF00
3F00
7900
3000
ENDCHAR
STARTCHAR 181
ENCODING 181
SWIDTH 720 0
DWIDTH 10 0
BBX 10 11 0 -9
BITMAP
1800
7F00
EFC0
6000
7FC0
3FC0
0040
FFC0
BFC0
F000
E000
ENDCHAR
STARTCHAR 182
ENCODING 182
SWIDTH 720 0
DWIDTH 10 0
BBX 10 13 0 -10
BITMAP
4540
E540
47C0
48C0
4DC0
58C0
6FC0
48C0
4FC0
4880
4840
4840
5040
ENDCHAR
STARTCHAR 183
ENCODING 183
SWIDTH 720 0
DWIDTH 10 0
BBX 10 16 0 -11
BITMAP
89C0
5200
3CC0
1700
7E80
9C40
0C00
3F00
7FC0
CE40
1F00
1F00
3F80
3F80
7F80
3300
ENDCHAR
STARTCHAR 184
ENCODING 184
SWIDTH 720 0
DWIDTH 10 0
BBX 9 10 1 -8
BITMAP
8080
4D00
7200
3F00
DC80
3700
DC80
6E00
4D00
9180
ENDCHAR
STARTCHAR 185
ENCODING 185
SWIDTH 720 0
DWIDTH 10 0
BBX 10 15 0 -11
BITMAP
0900
0600
8900
4600
2800
7100
6EC0
C500
FB40
7080
1BC0
2180
3080
3080
60C0
ENDCHAR
STARTCHAR 186
ENCODING 186
SWIDTH 720 0
DWIDTH 10 0
BBX 10 14 0 -10
BITMAP
0040
0000
0C40
0A40
0340
3940
4440
1140
EE40
9140
2040
4040
F240
7F40
ENDCHAR
STARTCHAR 187
ENCODING 187
SWIDTH 720 0
DWIDTH 10 0
BBX 10 13 0 -10
BITMAP
0200
0600
0F00
1980
9F80
5FC0
3F40
2F80
0F80
0F80
1F80
1F80
10C0
ENDCHAR
STARTCHAR 188
ENCODING 188
SWIDTH 720 0
DWIDTH 10 0
BBX 10 14 0 -11
BITMAP
8C00
4000
1C00
3400
7BC0
57C0
46C0
1CC0
0BC0
7A80
2280
6100
0300
C180
ENDCHAR
STARTCHAR 189
ENCODING 189
SWIDTH 720 0
DWIDTH 10 0
BBX 10 16 0 -11
BITMAP
0280
0280
2740
7DC0
7DC0
70C0
6040
D940
7940
31C0
35C0
34C0
2EC0
3FC0
0400
4240
ENDCHAR
STARTCHAR 190
ENCODING 190
SWIDTH 720 0
DWIDTH 10 0
BBX 10 16 0 -11
BITMAP
07C0
0540
07C0
7FC0
7C40
CD40
CFC0
DFC0
DF80
5F80
7F80
3F80
7B80
F1C0
F1C0
6000
ENDCHAR
STARTCHAR 191
ENCODING 191
SWIDTH 720 0
DWIDTH 10 0
BBX 10 13 0 -10
BITMAP
00C0
03C0
0180
1FC0
3F00
7F00
FF80
FF80
FFC0
FE00
D600
DB00
4000
ENDCHAR
STARTCHAR 192
ENCODING 192
SWIDTH 720 0
DWIDTH 10 0
BBX 10 12 0 -9
BITMAP
0600
8780
4E80
6600
6780
2FC0
3E40
0E00
1E00
1400
1200
0900
ENDCHAR
STARTCHAR 193
ENCODING 193
SWIDTH 720 0
DWIDTH 10 0
BBX 10 13 0 -10
BITMAP
3F00
4080
9F40
B140
A140
A140
A540
B340
9F40
E080
3FC0
0040
0040
ENDCHAR
STARTCHAR 194
ENCODING 194
SWIDTH 720 0
DWIDTH 10 0
BBX 10 8 0 -10
BITMAP
0800
3E00
6F80
FFC0
DFC0
0040
0080
0100
ENDCHAR
STARTCHAR 195
ENCODING 195
SWIDTH 720 0
DWIDTH 10 0
BBX 10 15 0 -11
BITMAP
7980
ECC0
FE40
BF40
3F40
EF40
CF40
1F40
3F80
2F80
0F80
0F80
1F00
1B00
0900
ENDCHAR
STARTCHAR 196
ENCODING 196
SWIDTH 720 0
DWIDTH 10 0
BBX 10 15 0 -11
BITMAP
1800
7C00
DE00
FE00
1F00
FF00
1F00
7F80
4FC0
0FC0
1F40
1F40
1B00
1900
3300
ENDCHAR
STARTCHAR 197
ENCODING 197
SWIDTH 720 0
DWIDTH 10 0
BBX 10 15 0 -11
BITMAP
0E00
0400
0E00
4A40
F0C0
4440
1B00
0400
1B00
0400
1B00
0000
0A00
0A00
1100
ENDCHAR
STARTCHAR 198
ENCODING 198
SWIDTH 720 0
DWIDTH 10 0
BBX 10 14 0 -11
BITMAP
1E00
7200
0700
7FC0
DBC0
95C0
3BC0
4FC0
CFC0
8F80
0E80
0A80
1A80
3200
ENDCHAR
STARTCHAR 199
ENCODING 199
SWIDTH 720 0
DWIDTH 10 0
BBX 10 14 0 -10
BITMAP
0600
0F00
0600
1080
3FC0
7FC0
D1C0
5B40
5B40
1F00
3980
2100
31C0
41C0
ENDCHAR
STARTCHAR 200
ENCODING 200
SWIDTH 720 0
DWIDTH 10 0
BBX 9 9 1 -10
BITMAP
7E00
EB00
B700
C380
C980
E380
E380
6B00
7F00
ENDCHAR
STARTCHAR 201
ENCODING 201
SWIDTH 720 0
DWIDTH 10 0
BBX 10 15 0 -11
BITMAP
0A00
4A40
0A00
9F00
AA00
80C0
CEC0
E080
4180
2900
1100
1880
1900
1800
0900
ENDCHAR
STARTCHAR 202
ENCODING 202
SWIDTH 720 0
DWIDTH 10 0
BBX 9 13 0 -10
BITMAP
0A00
0E00
0F80
EF00
2880
3C00
3E00
3F00
1900
0580
0800
0800
1000
ENDCHAR
STARTCHAR 203
ENCODING 203
SWIDTH 720 0
DWIDTH 10 0
BBX 9 15 1 -11
BITMAP
0800
0000
5500
C180
5D00
5500
C100
6300
5500
4900
4100
4100
5500
E380
3600
ENDCHAR
STARTCHAR 204
ENCODING 204
SWIDTH 720 0
DWIDTH 10 0
BBX 10 14 0 -11
BITMAP
0700
0F00
1900
1100
3F80
7FC0
CF40
8F00
9F00
1F80
1F80
3F80
7F80
0780
ENDCHAR
STARTCHAR 205
ENCODING 205
SWIDTH 720 0
DWIDTH 10 0
BBX 10 16 0 -11
BITMAP
00C0
5480
7CC0
0080
7CC0
5480
7EC0
C680
FFC0
F580
EC80
1C80
BC00
FC00
4400
6600
ENDCHAR
STARTCHAR 206
ENCODING 206
SWIDTH 720 0
DWIDTH 10 0
BBX 10 16 0 -11
BITMAP
7C00
5700
7FC0
7740
7AC0
7DC0
7DC0
65C0
6780
6780
CF80
8C80
9D80
1980
1980
1980
ENDCHAR
STARTCHAR 207
ENCODING 207
SWIDTH 720 0
DWIDTH 10 0
BBX 10 11 0 -8
BITMAP
2000
3800
0C00
FF00
1FC0
FFC0
3FC0
6FC0
D8C0
3000
6000
ENDCHAR
STARTCHAR 208
ENCODING 208
SWIDTH 720 0
DWIDTH 10 0
BBX 10 15 0 -11
BITMAP
0C00
0200
0800
E600
5A00
AF80
0A40
0C40
0A80
0600
1A00
1800
0200
0A00
3180
ENDCHAR
STARTCHAR 209
ENCODING 209
SWIDTH 720 0
DWIDTH 10 0
BBX 10 13 0 -11
BITMAP
FF00
6F80
39C0
18C0
F8C0
68C0
38C0
18C0
F8C0
68C0
39C0
1F80
1F00
ENDCHAR
STARTCHAR 210
ENCODING 210
SWIDTH 720 0
DWIDTH 10 0
BBX 10 15 0 -11
BITMAP
FE00
7F80
2FC0
39C0
F8C0
68C0
38C0
38C0
E8C0
78C0
38C0
29C0
FFC0
7F80
3E00
ENDCHAR
STARTCHAR 211
ENCODING 211
SWIDTH 720 0
DWIDTH 10 0
BBX 9 13 1 -10
BITMAP
7E00
6300
6180
6B80
6180
6180
6D80
6180
6380
7F00
FF00
5280
5280
ENDCHAR
STARTCHAR 212
ENCODING 212
SWIDTH 720 0
DWIDTH 10 0
BBX 10 14 0 -11
BITMAP
7F80
F1C0
F0C0
B5C0
B0C0
30C0
36C0
36C0
31C0
7F80
FF80
29C0
5940
D200
ENDCHAR
STARTCHAR 213
ENCODING 213
SWIDTH 720 0
DWIDTH 10 0
BBX 10 11 0 -9
BITMAP
FF00
7F80
20C0
E4C0
64C0
24C0
EEC0
64C0
21C0
3F80
7F00
ENDCHAR
STARTCHAR 214
ENCODING 214
SWIDTH 720 0
DWIDTH 10 0
BBX 9 12 0 -11
BITMAP
0400
0E00
1F00
3180
7180
FB00
4E00
6400
3100
3B00
1E00
0C00
ENDCHAR
STARTCHAR 215
ENCODING 215
SWIDTH 720 0
DWIDTH 10 0
BBX 7 12 2 -10
BITMAP
7C
FE
82
80
88
BC
EC
88
80
FE
FE
7C
ENDCHAR
STARTCHAR 216
ENCODING 216
SWIDTH 720 0
DWIDTH 10 0
BBX 8 14 1 -11
BITMAP
08
1C
3E
67
C3
67
3E
1F
1E
34
24
2C
38
10
ENDCHAR
STARTCHAR 217
ENCODING 217
SWIDTH 720 0
DWIDTH 10 0
BBX 9 12 0 -9
BITMAP
1E80
3F80
7180
6080
E000
C100
C300
C780
E180
7180
7F00
FE00
ENDCHAR
STARTCHAR 218
ENCODING 218
SWIDTH 720 0
DWIDTH 10 0
BBX 8 10 2 -9
BITMAP
40
C4
40
40
40
7C
7C
4C
4D
E7
ENDCHAR
STARTCHAR 219
ENCODING 219
SWIDTH 720 0
DWIDTH 10 0
BBX 8 12 2 -9
BITMAP
04
0E
4C
C6
4E
44
40
7C
7C
4C
4D
E7
ENDCHAR
STARTCHAR 220
ENCODING 220
SWIDTH 720 0
DWIDTH 10 0
BBX 9 13 1 -10
BITMAP
3080
E300
E300
6300
6100
6300
7F00
6300
6100
6100
E300
F780
4100
ENDCHAR
STARTCHAR 221
ENCODING 221
SWIDTH 720 0
DWIDTH 10 0
BBX 9 12 1 -11
BITMAP
0580
0300
0000
0200
0200
0E00
0780
0600
8300
CE00
FE00
7800
ENDCHAR
STARTCHAR 222
ENCODING 222
SWIDTH 720 0
DWIDTH 10 0
BBX 10 12 0 -9
BITMAP
07C0
07C0
0380
0180
0180
0180
0180
F980
7180
6180
3F80
3F00
ENDCHAR
STARTCHAR 223
ENCODING 223
SWIDTH 720 0
DWIDTH 10 0
BBX 9 13 1 -10
BITMAP
F000
5000
7000
7000
5000
7000
7000
5000
7080
7380
7E80
5B80
7F80
ENDCHAR
STARTCHAR 224
ENCODING 224
SWIDTH 720 0
DWIDTH 10 0
BBX 10 13 0 -10
BITMAP
FF00
7E00
3C00
3C00
3C00
3C00
3C00
3C00
3C40
3CC0
3FC0
3FC0
7FC0
ENDCHAR
STARTCHAR 225
ENCODING 225
SWIDTH 720 0
DWIDTH 10 0
BBX 8 9 1 -11
BITMAP
FE
63
63
62
7C
60
60
60
40
ENDCHAR
STARTCHAR 226
ENCODING 226
SWIDTH 720 0
DWIDTH 10 0
BBX 9 11 1 -11
BITMAP
FE00
7F00
3180
3180
F180
7F00
3E00
3000
3000
2000
2000
ENDCHAR
STARTCHAR 227
ENCODING 227
SWIDTH 720 0
DWIDTH 10 0
BBX 10 11 0 -11
BITMAP
FF00
6F80
39C0
F9C0
69C0
3FC0
FF00
6800
3800
3800
3800
ENDCHAR
STARTCHAR 228
ENCODING 228
SWIDTH 720 0
DWIDTH 10 0
BBX 9 12 1 -10
BITMAP
8880
4900
0000
FE00
FF00
7100
7100
7E00
6000
6000
6000
6000
ENDCHAR
STARTCHAR 229
ENCODING 229
SWIDTH 720 0
DWIDTH 10 0
BBX 10 14 0 -11
BITMAP
1840
2480
4300
0000
FF80
7FC0
39C0
F9C0
79C0
3FC0
FF80
7800
3800
3800
ENDCHAR
STARTCHAR 230
ENCODING 230
SWIDTH 720 0
DWIDTH 10 0
BBX 8 12 1 -11
BITMAP
7E
00
00
FC
7E
63
63
7E
60
60
60
40
ENDCHAR
STARTCHAR 231
ENCODING 231
SWIDTH 720 0
DWIDTH 10 0
BBX 9 13 1 -11
BITMAP
7E00
0000
FE00
7F00
3180
3180
F180
7F00
3E00
3000
3000
3000
2000
ENDCHAR
STARTCHAR 232
ENCODING 232
SWIDTH 720 0
DWIDTH 10 0
BBX 10 13 0 -10
BITMAP
FF00
FF00
FF80
B180
30C0
30C0
3FC0
3FC0
3000
3000
3000
7000
F000
ENDCHAR
STARTCHAR 233
ENCODING 233
SWIDTH 720 0
DWIDTH 10 0
BBX 8 11 2 -11
BITMAP
04
0C
7C
EC
C4
C4
FC
74
04
05
06
ENDCHAR
STARTCHAR 234
ENCODING 234
SWIDTH 720 0
DWIDTH 10 0
BBX 9 15 0 -11
BITMAP
8000
8000
F800
FE00
E700
C180
C080
C080
C080
C080
C480
E680
7F80
3F00
0180
ENDCHAR
STARTCHAR 235
ENCODING 235
SWIDTH 720 0
DWIDTH 10 0
BBX 9 15 1 -11
BITMAP
8080
C180
FF80
FF80
E380
C080
C080
C080
C080
C080
C480
E780
7F00
3F00
0180
ENDCHAR
STARTCHAR 236
ENCODING 236
SWIDTH 720 0
DWIDTH 10 0
BBX 10 13 0 -10
BITMAP
8C00
7F00
7180
3080
3180
3F00
3E00
3E00
3700
3300
2180
2080
2040
ENDCHAR
STARTCHAR 237
ENCODING 237
SWIDTH 720 0
DWIDTH 10 0
BBX 10 9 0 -10
BITMAP
0480
1FC0
38C0
3800
1F00
0380
E380
7E00
2400
ENDCHAR
STARTCHAR 238
ENCODING 238
SWIDTH 720 0
DWIDTH 10 0
BBX 10 12 0 -10
BITMAP
0F80
1F80
38C0
30C0
3080
1C00
0F80
0080
6080
FF80
7F00
1E00
ENDCHAR
STARTCHAR 239
ENCODING 239
SWIDTH 720 0
DWIDTH 10 0
BBX 9 9 0 -9
BITMAP
2200
2200
6300
4100
C180
E380
E380
7F00
3E00
ENDCHAR
STARTCHAR 240
ENCODING 240
SWIDTH 720 0
DWIDTH 10 0
BBX 8 15 2 -11
BITMAP
80
80
80
87
83
C3
C3
C3
C3
C3
C3
C3
C7
FE
3C
ENDCHAR
STARTCHAR 241
ENCODING 241
SWIDTH 720 0
DWIDTH 10 0
BBX 8 14 2 -11
BITMAP
01
81
83
C3
C3
E7
E7
C3
C3
C3
C3
C3
7E
3C
ENDCHAR
STARTCHAR 242
ENCODING 242
SWIDTH 720 0
DWIDTH 10 0
BBX 9 16 1 -11
BITMAP
8080
8080
A280
9480
C180
C980
C980
C180
C180
C180
C180
C180
E380
7700
3F00
1E00
ENDCHAR
STARTCHAR 243
ENCODING 243
SWIDTH 720 0
DWIDTH 10 0
BBX 10 9 0 -10
BITMAP
60C0
60C0
F1C0
3180
7BC0
1B00
3F80
0E00
0E00
ENDCHAR
STARTCHAR 244
ENCODING 244
SWIDTH 720 0
DWIDTH 10 0
BBX 10 12 0 -10
BITMAP
2280
0100
0A00
64C0
60C0
F1C0
3180
7BC0
1B00
3F80
0E00
0E00
ENDCHAR
STARTCHAR 245
ENCODING 245
SWIDTH 720 0
DWIDTH 10 0
BBX 10 13 0 -10
BITMAP
1F00
1F00
0000
0000
60C0
60C0
F1C0
3180
7BC0
1B00
3F80
0E00
0E00
ENDCHAR
STARTCHAR 246
ENCODING 246
SWIDTH 720 0
DWIDTH 10 0
BBX 10 8 0 -8
BITMAP
5000
F1C0
60C0
20C0
2480
3680
1B80
1900
ENDCHAR
STARTCHAR 247
ENCODING 247
SWIDTH 720 0
DWIDTH 10 0
BBX 9 14 1 -11
BITMAP
8080
8000
8100
8000
C080
C000
C100
C080
C980
DD80
F780
E380
C180
8180
ENDCHAR
STARTCHAR 248
ENCODING 248
SWIDTH 720 0
DWIDTH 10 0
BBX 10 14 0 -10
BITMAP
8340
9840
C040
C040
C6C0
C0C0
C0C0
60C0
60C0
64C0
6EC0
7BC0
3180
2080
ENDCHAR
STARTCHAR 249
ENCODING 249
SWIDTH 720 0
DWIDTH 10 0
BBX 9 16 1 -11
BITMAP
8080
8080
8080
8080
8080
8080
C980
C980
C980
C980
DD80
DD80
F780
E380
C180
8080
ENDCHAR
STARTCHAR 250
ENCODING 250
SWIDTH 720 0
DWIDTH 10 0
BBX 9 7 1 -8
BITMAP
7F80
C300
8600
0C00
1800
3080
7F80
ENDCHAR
STARTCHAR 251
ENCODING 251
SWIDTH 720 0
DWIDTH 10 0
BBX 7 11 2 -9
BITMAP
FE
82
82
06
0C
18
30
62
C2
FE
FE
ENDCHAR
STARTCHAR 252
ENCODING 252
SWIDTH 720 0
DWIDTH 10 0
BBX 10 11 0 -9
BITMAP
3FC0
30C0
FCC0
7980
3300
0600
0C00
1800
3800
3FC0
3FC0
ENDCHAR
STARTCHAR 253
ENCODING 253
SWIDTH 720 0
DWIDTH 10 0
BBX 7 13 2 -10
BITMAP
FE
AA
56
06
0E
1E
3C
78
F0
E0
FE
AA
56
ENDCHAR
STARTCHAR 254
ENCODING 254
SWIDTH 720 0
DWIDTH 10 0
BBX 10 13 0 -10
BITMAP
FFC0
7FC0
3FC0
01C0
03C0
0780
0F00
1E00
3C00
7800
FF00
FF80
FFC0
ENDCHAR
STARTCHAR 255
ENCODING 255
SWIDTH 720 0
DWIDTH 10 0
BBX 10 13 0 -11
BITMAP
2180
73C0
DEC0
0080
0180
0300
0600
0C00
1800
3000
6F00
79C0
20C0
ENDCHAR
ENDFONT
